# xmcd
#
# Track frame offsets: 
#        150
#        9785
#        15945
#        21312
#        31010
#        38995
#        47155
#        56167
#        65752
#        73487
#        88175
#        100290
#        110220
#        119082
#        131032
#        141067
#        149162
#        150775
#        163835
#        175972
#        177097
#        184587
#        196230
#        208530
#        216267
#        227490
#        237875
#        251367
#        259310
#        268597
#
# Disc length: 3744 seconds
#
# Revision: 0
# Processed by: cddbd v1.5.2PL0 Copyright (c) Steve Scherf et al.
# Submitted via: ExactAudioCopy v0.95b4
#
DISCID=b90e9e1e
DTITLE=Uncle Dave Macon - Keep my skillet good and greasy [CD9]
DYEAR=2004
DGENRE=Folk
TTITLE0=Cannon County hills
TTITLE1=Nobody's darling but mine
TTITLE2=Way out on the mountain
TTITLE3=Keep my skillet good and greasy
TTITLE4=Brother Johnson
TTITLE5=Take me back to my old Carolina home
TTITLE6=(She was always) Chewing gum
TTITLE7=Kissin' on the sly
TTITLE8=Turkey in the straw
TTITLE9=I intend to make Heaven my home
TTITLE10=Honest confession is good for the soul
TTITLE11=Come dearest the daylight is gone
TTITLE12=I've got a mule to ride
TTITLE13=Late last night when my Willie came home
TTITLE14=Keep my skillet good and greasy
TTITLE15=Shucking the corn
TTITLE16=How beautiful Heaven must be
TTITLE17=Peek-a-boo
TTITLE18=He won the heart of my Sarah Jane
TTITLE19=Over the mountain
TTITLE20=I'm going away to leave you, love
TTITLE21=Late last night when my Willie came home
TTITLE22=All go hungry hash house
TTITLE23=Turkey in the straw
TTITLE24=Something's always sure to tickle me
TTITLE25=Hand me down my walking cane
TTITLE26=New dude in town
TTITLE27=From Jerusalem to Jericho
TTITLE28=Old Dan Tucker
TTITLE29=All go hungry hash house
EXTD=
EXTT0=
EXTT1=
EXTT2=
EXTT3=
EXTT4=
EXTT5=
EXTT6=
EXTT7=
EXTT8=
EXTT9=
EXTT10=
EXTT11=
EXTT12=
EXTT13=
EXTT14=
EXTT15=
EXTT16=
EXTT17=
EXTT18=
EXTT19=
EXTT20=
EXTT21=
EXTT22=
EXTT23=
EXTT24=
EXTT25=
EXTT26=
EXTT27=
EXTT28=
EXTT29=
PLAYORDER=
